<?xml version="1.0" encoding="UTF-8" standalone="no"?>
<!-- Created with Inkscape (http://www.inkscape.org/) -->

<svg
   xmlns:dc="http://purl.org/dc/elements/1.1/"
   xmlns:cc="http://creativecommons.org/ns#"
   xmlns:rdf="http://www.w3.org/1999/02/22-rdf-syntax-ns#"
   xmlns:svg="http://www.w3.org/2000/svg"
   xmlns="http://www.w3.org/2000/svg"
   xmlns:sodipodi="http://sodipodi.sourceforge.net/DTD/sodipodi-0.dtd"
   xmlns:inkscape="http://www.inkscape.org/namespaces/inkscape"
   width="100"
   height="100"
   viewBox="0 0 26.458333 26.458334"
   version="1.1"
   id="svg8"
   inkscape:version="0.92.4 (5da689c313, 2019-01-14)"
   sodipodi:docname="icone200.svg"
   inkscape:export-filename="/var/www/html/vemsimplificar/public/assets/img/icone100.png"
   inkscape:export-xdpi="130"
   inkscape:export-ydpi="130">
  <defs
     id="defs2" />
  <sodipodi:namedview
     id="base"
     pagecolor="#ffffff"
     bordercolor="#666666"
     borderopacity="1.0"
     inkscape:pageopacity="0.0"
     inkscape:pageshadow="2"
     inkscape:zoom="2.8"
     inkscape:cx="71.681654"
     inkscape:cy="46.21368"
     inkscape:document-units="mm"
     inkscape:current-layer="layer1"
     showgrid="false"
     showborder="true"
     inkscape:window-width="1366"
     inkscape:window-height="718"
     inkscape:window-x="0"
     inkscape:window-y="26"
     inkscape:window-maximized="1"
     showguides="true"
     inkscape:guide-bbox="true"
     units="px"
     inkscape:showpageshadow="false" />
  <metadata
     id="metadata5">
    <rdf:RDF>
      <cc:Work
         rdf:about="">
        <dc:format>image/svg+xml</dc:format>
        <dc:type
           rdf:resource="http://purl.org/dc/dcmitype/StillImage" />
        <dc:title></dc:title>
      </cc:Work>
    </rdf:RDF>
  </metadata>
  <g
     inkscape:label="Camada 1"
     inkscape:groupmode="layer"
     id="layer1"
     transform="translate(0,-270.54164)">
    <path
       id="path821-3"
       style="fill:#d9534f;fill-opacity:1;stroke-width:0.02941076"
       d="m 26.502644,273.57459 c -0.01269,-0.006 -12.693583,1.40815 -12.829484,1.43717 l -0.06658,0.0131 v 7.6563 4.86292 c 0.0044,-1.3e-4 0.0096,4.9e-4 0.01515,9.9e-4 l 0.780314,-0.0935 1.241667,-0.13159 1.715689,-0.29137 1.425832,-0.32257 1.146294,-0.47169 0.749595,-0.28077 c 0.217631,-0.0924 0.605776,-0.21649 0.786947,0.006 0.164744,0.15473 0.255139,0.54717 -0.04968,0.83663 -0.350632,0.26954 -0.758759,0.45484 -1.174173,0.62898 -0.449836,0.21526 -1.020353,0.39621 -1.551926,0.56653 -0.537965,0.17969 -1.100524,0.29451 -1.676032,0.37499 l -1.760486,0.26579 -1.649247,0.16783 v 1.53663 h 5.542258 5.542267 l 0.912308,-8.37552 c 0.501777,-4.60654 0.906446,-8.38145 0.899247,-8.38837 z m -12.896092,15.22727 v -9.9e-4 c -0.0039,4.9e-4 -0.0076,9.9e-4 -0.01065,9.9e-4 -1.55e-4,2.3e-4 -1.55e-4,3.7e-4 -3.91e-4,4.9e-4 z m 3.392817,-11.84033 a 1.7389176,3.4119726 0 0 1 1.73892,3.4119 1.7389176,3.4119726 0 0 1 -1.73892,3.41209 1.7389176,3.4119726 0 0 1 -1.738917,-3.41209 1.7389176,3.4119726 0 0 1 1.738917,-3.4119 z m -3.399089,10.73715 c -0.0011,3.2e-4 -0.0021,5e-4 -0.0018,9.9e-4 3.13e-4,5e-4 7.56e-4,9.9e-4 0.0011,9.9e-4 0.0011,-9.9e-4 0.0014,-9.9e-4 0.0028,-0.003 3.92e-4,-4.3e-4 -6.56e-4,-4.3e-4 -0.0018,-1.9e-4 z"
       inkscape:connector-curvature="0" />
    <path
       style="fill:#d9534f;fill-opacity:1;stroke-width:0.01753845"
       d="m 19.995506,273.9824 c 3.443529,-0.38559 6.264347,-0.70399 6.268486,-0.70823 0.0066,-0.006 0.04636,-0.78947 0.04011,-0.79394 -0.0022,-0.001 -12.407057,2.1496 -12.604914,2.18612 -0.07429,0.0131 -0.07848,0.0131 -0.02644,0.0131 0.03396,7e-5 2.879208,-0.31508 6.322744,-0.70042 z"
       id="path849-5"
       inkscape:connector-curvature="0" />
    <path
       style="fill:#d9534f;fill-opacity:1;stroke-width:0.01753845"
       d="m 19.852733,273.3901 c 3.40042,-0.66062 6.185666,-1.20449 6.18944,-1.209 0.0062,-0.006 -0.01879,-0.79045 -0.02524,-0.79436 -0.0024,-9.9e-4 -12.189035,3.13816 -12.383241,3.19034 -0.07294,0.0188 -0.07689,0.025 -0.02501,0.0188 0.03388,-9.9e-4 2.843747,-0.54469 6.244169,-1.20549 z"
       id="path849-3-6"
       inkscape:connector-curvature="0" />
    <path
       style="fill:#d9534f;fill-opacity:1;stroke:#ff5555;stroke-width:0.02941076;stroke-opacity:1"
       d="m 13.613812,291.85504 v -2.20639 h 3.158134 c 1.736973,0 3.14548,0.006 3.130011,0.025 -0.06116,0.0498 -6.257532,4.38848 -6.272329,4.38848 -0.0087,0 -0.01579,-0.99286 -0.01579,-2.20648 z"
       id="path1042"
       inkscape:connector-curvature="0" />
    <path
       style="fill:#02b875;fill-opacity:1;stroke-width:0.01753845"
       d="m 6.4924312,273.98178 c -3.4435303,-0.38559 -6.26434952,-0.70386 -6.26848687,-0.70823 -0.006713,-0.006 -0.0463615,-0.78927 -0.0401487,-0.79384 0.002477,-9.9e-4 12.40705037,2.14963 12.60491337,2.18613 0.07429,0.0131 0.07849,0.0131 0.02645,0.0131 -0.03396,7e-5 -2.8792107,-0.31509 -6.3227388,-0.70044 z"
       id="path849-5-6"
       inkscape:connector-curvature="0" />
    <path
       style="fill:#02b875;fill-opacity:1;stroke-width:0.01753845"
       d="m 6.6352039,273.38968 c -3.4004181,-0.66063 -6.18566473,-1.20458 -6.18943757,-1.20906 -0.006275,-0.006 0.0187695,-0.79059 0.0253172,-0.79447 0.002477,-9.9e-4 12.18903247,3.13827 12.38324147,3.19048 0.07294,0.0188 0.07688,0.025 0.02501,0.0188 -0.03388,-9.9e-4 -2.843747,-0.5447 -6.2441628,-1.20555 z"
       id="path849-3-6-7"
       inkscape:connector-curvature="0" />
    <path
       inkscape:connector-curvature="0"
       id="path821-3-3"
       style="fill:#02b875;fill-opacity:1;stroke-width:0.02941076"
       d="m -0.01099431,273.57459 c 0.01268774,-0.006 12.69358131,1.40815 12.82948131,1.43717 l 0.06658,0.0131 v 7.6563 4.86292 c -0.0044,-1.3e-4 -0.0096,4.9e-4 -0.01516,9.9e-4 l -0.78031,-0.0935 -1.241666,-0.13159 -1.7156921,-0.29137 -1.4258296,-0.32257 -1.1462913,-0.47169 -0.7495964,-0.28077 c -0.2176335,-0.0924 -0.6057764,-0.21649 -0.7869481,0.006 -0.1647356,0.15473 -0.2551326,0.54717 0.049644,0.83663 0.3506309,0.26954 0.7587579,0.45484 1.1741694,0.62898 0.4498393,0.21464 1.0203539,0.39621 1.5519246,0.56653 0.5379654,0.17969 1.1005232,0.29451 1.6760297,0.37499 l 1.7604868,0.26642 1.649247,0.16783 v 1.53649 H 7.3428227 1.8005545 l -0.91231365,-8.37687 c -0.5017775,-4.60588 -0.90644529,-8.38078 -0.89924244,-8.38772 z M 12.885096,288.80186 v -9.9e-4 c 0.0039,4.9e-4 0.0076,9.9e-4 0.01065,9.9e-4 1.56e-4,2.3e-4 1.56e-4,3.7e-4 3.89e-4,4.9e-4 z M 9.4922763,276.96153 a 1.7389176,3.4119726 0 0 0 -1.7389175,3.41197 1.7389176,3.4119726 0 0 0 1.7389175,3.41202 1.7389176,3.4119726 0 0 0 1.7389177,-3.41209 1.7389176,3.4119726 0 0 0 -1.7389177,-3.4119 z m 3.3990927,10.73715 c 0.0011,3.2e-4 0.0021,5e-4 0.0018,9.9e-4 -3.12e-4,5e-4 -7.56e-4,9.9e-4 -0.0011,9.9e-4 -0.0011,-9.9e-4 -0.0014,-9.9e-4 -0.0028,-0.003 -3.91e-4,-4.3e-4 6.55e-4,-4.3e-4 0.0018,-1.9e-4 z" />
    <flowRoot
       xml:space="preserve"
       id="flowRoot198"
       style="font-style:normal;font-variant:normal;font-weight:normal;font-stretch:normal;font-size:26.66666603px;line-height:1.25;font-family:'Rubik Mono One';-inkscape-font-specification:'Rubik Mono One';text-align:center;letter-spacing:0px;word-spacing:0px;text-anchor:middle;fill:#000000;fill-opacity:1;stroke:none"><flowRegion
         id="flowRegion200"
         style="font-style:normal;font-variant:normal;font-weight:normal;font-stretch:normal;font-size:26.66666603px;font-family:'Rubik Mono One';-inkscape-font-specification:'Rubik Mono One';text-align:center;text-anchor:middle"><rect
           id="rect202"
           width="256.07367"
           height="41.921329"
           x="0"
           y="203.97714"
           style="font-style:normal;font-variant:normal;font-weight:normal;font-stretch:normal;font-size:26.66666603px;font-family:'Rubik Mono One';-inkscape-font-specification:'Rubik Mono One';text-align:center;text-anchor:middle" /></flowRegion><flowPara
         id="flowPara204" /></flowRoot>    <flowRoot
       xml:space="preserve"
       id="flowRoot4655"
       style="font-style:normal;font-variant:normal;font-weight:normal;font-stretch:normal;font-size:21.33333397px;line-height:1.25;font-family:'Droid Sans Fallback';-inkscape-font-specification:'Droid Sans Fallback';letter-spacing:0px;word-spacing:0px;fill:#02b875;fill-opacity:1;stroke:none"
       transform="matrix(0.13331203,0,0,0.13277054,-0.07330013,271.29268)"><flowRegion
         id="flowRegion4657"
         style="font-style:normal;font-variant:normal;font-weight:normal;font-stretch:normal;font-size:21.33333397px;font-family:'Droid Sans Fallback';-inkscape-font-specification:'Droid Sans Fallback';fill:#02b875;fill-opacity:1"><rect
           id="rect4659"
           width="200.01021"
           height="27.274118"
           x="0"
           y="172.72588"
           style="font-style:normal;font-variant:normal;font-weight:normal;font-stretch:normal;font-size:21.33333397px;font-family:'Droid Sans Fallback';-inkscape-font-specification:'Droid Sans Fallback';fill:#02b875;fill-opacity:1" /></flowRegion><flowPara
         id="flowPara4661"
         style="font-style:normal;font-variant:normal;font-weight:normal;font-stretch:normal;font-size:21.33333397px;font-family:'Fredoka One';-inkscape-font-specification:'Fredoka One';text-align:center;text-anchor:middle;fill:#02b875;fill-opacity:1">VEM SIMPLIFICAR</flowPara></flowRoot>  </g>
</svg>
