<?xml version="1.0" encoding="UTF-8" standalone="no"?>
<!-- Created with Inkscape (http://www.inkscape.org/) -->

<svg
   xmlns:dc="http://purl.org/dc/elements/1.1/"
   xmlns:cc="http://creativecommons.org/ns#"
   xmlns:rdf="http://www.w3.org/1999/02/22-rdf-syntax-ns#"
   xmlns:svg="http://www.w3.org/2000/svg"
   xmlns="http://www.w3.org/2000/svg"
   xmlns:sodipodi="http://sodipodi.sourceforge.net/DTD/sodipodi-0.dtd"
   xmlns:inkscape="http://www.inkscape.org/namespaces/inkscape"
   width="64"
   height="64"
   viewBox="0 0 16.933333 16.933334"
   version="1.1"
   id="svg8"
   inkscape:version="0.92.4 (5da689c313, 2019-01-14)"
   sodipodi:docname="icone64.svg"
   inkscape:export-filename="/home/gilmar/Desktop/logo-com-nome.png"
   inkscape:export-xdpi="130"
   inkscape:export-ydpi="130">
  <defs
     id="defs2" />
  <sodipodi:namedview
     id="base"
     pagecolor="#ffffff"
     bordercolor="#666666"
     borderopacity="1.0"
     inkscape:pageopacity="0.0"
     inkscape:pageshadow="2"
     inkscape:zoom="5.6"
     inkscape:cx="38.768197"
     inkscape:cy="28.682179"
     inkscape:document-units="mm"
     inkscape:current-layer="layer1"
     showgrid="false"
     showborder="true"
     inkscape:window-width="1366"
     inkscape:window-height="721"
     inkscape:window-x="0"
     inkscape:window-y="26"
     inkscape:window-maximized="1"
     showguides="true"
     inkscape:guide-bbox="true"
     units="px"
     inkscape:showpageshadow="false" />
  <metadata
     id="metadata5">
    <rdf:RDF>
      <cc:Work
         rdf:about="">
        <dc:format>image/svg+xml</dc:format>
        <dc:type
           rdf:resource="http://purl.org/dc/dcmitype/StillImage" />
        <dc:title></dc:title>
      </cc:Work>
    </rdf:RDF>
  </metadata>
  <g
     inkscape:label="Camada 1"
     inkscape:groupmode="layer"
     id="layer1"
     transform="translate(0,-280.06664)">
    <path
       id="path821-3"
       style="fill:#ff5555;stroke-width:0.01832583"
       d="m 16.676307,283.37259 c -0.0079,-0.007 -7.8932974,0.87921 -7.9778045,0.89737 l -0.041418,0.009 v 4.78034 3.03629 c 0.00278,-9e-5 0.00603,2.4e-4 0.00945,9.2e-4 l 0.4852242,-0.0584 0.7721118,-0.0824 1.0668725,-0.18178 0.886631,-0.20161 0.712803,-0.29448 0.466123,-0.17539 c 0.13533,-0.0577 0.376694,-0.13511 0.489351,0.004 0.102441,0.0966 0.158652,0.34173 -0.03088,0.52235 -0.218035,0.16856 -0.471821,0.28405 -0.73014,0.39275 -0.27972,0.13418 -0.634489,0.24731 -0.965038,0.35374 -0.334524,0.11227 -0.684343,0.1838 -1.042214,0.23389 l -1.0947299,0.16617 -1.0255571,0.10498 v 0.95938 h 3.446369 3.446368 l 0.567305,-5.22941 c 0.312022,-2.87619 0.563658,-5.23305 0.55918,-5.23749 z m -8.0192239,9.50751 v -9.3e-4 c -0.00232,3e-4 -0.00464,9.3e-4 -0.00667,9.3e-4 -9.75e-5,1.1e-4 -9.75e-5,2.1e-4 -2.439e-4,3.1e-4 z m 2.1097679,-7.3928 a 1.0813175,2.1303323 0 0 1 1.081318,2.13034 1.0813175,2.1303323 0 0 1 -1.081318,2.13034 1.0813175,2.1303323 0 0 1 -1.0813179,-2.13034 1.0813175,2.1303323 0 0 1 1.0813179,-2.13034 z m -2.1136685,6.70398 c -7.503e-4,1.8e-4 -0.00139,2.8e-4 -0.00121,9.3e-4 1.949e-4,2.9e-4 4.824e-4,9.2e-4 7.004e-4,9.2e-4 7.001e-4,-9.2e-4 9.273e-4,-9.2e-4 0.00168,-0.002 2.438e-4,-3.1e-4 -4.415e-4,-3.1e-4 -0.00112,-1.2e-4 z"
       inkscape:connector-curvature="0" />
    <path
       style="fill:#ff5555;fill-opacity:1;stroke-width:0.01092823"
       d="m 12.629949,283.62723 c 2.141302,-0.24056 3.895382,-0.43957 3.897956,-0.44221 0.0042,-0.004 0.02883,-0.4929 0.02497,-0.49566 -0.0014,-9.1e-4 -7.7151233,1.34214 -7.8381589,1.36489 -0.046203,0.008 -0.048801,0.0102 -0.016462,0.0102 0.021126,6e-5 1.7903889,-0.1967 3.9316939,-0.43728 z"
       id="path849-5"
       inkscape:connector-curvature="0" />
    <path
       style="fill:#ff5555;fill-opacity:1;stroke-width:0.01092823"
       d="m 12.541168,283.25743 c 2.114495,-0.41232 3.846454,-0.75202 3.848802,-0.75487 0.0039,-0.005 -0.01168,-0.49357 -0.01574,-0.49601 -0.0015,-9.2e-4 -7.5795527,1.95942 -7.7003171,1.99201 -0.045351,0.0122 -0.047808,0.0141 -0.015563,0.0116 0.021071,-9.2e-4 1.7683381,-0.34033 3.8828321,-0.75266 z"
       id="path849-3-6"
       inkscape:connector-curvature="0" />
    <path
       style="fill:#ff5555;fill-opacity:1;stroke:#ff5555;stroke-width:0.01832583;stroke-opacity:1"
       d="m 8.6615978,294.78639 v -1.37764 h 1.9638332 c 1.080107,0 1.955965,0.006 1.946345,0.0153 -0.038,0.0332 -3.891142,2.74002 -3.9003429,2.74002 -0.00538,0 -0.00984,-0.61993 -0.00984,-1.37764 z"
       id="path1042"
       inkscape:connector-curvature="0" />
    <path
       style="fill:#5fd35f;fill-opacity:1;stroke-width:0.01092823"
       d="m 4.233283,283.6269 c -2.1413027,-0.24057 -3.89538271,-0.43956 -3.89795602,-0.44223 -0.004192,-0.004 -0.0288288,-0.49285 -0.0249688,-0.49562 0.001493,-9.5e-4 7.71512122,1.34211 7.83815882,1.36489 0.046203,0.008 0.048801,0.0102 0.016462,0.0102 -0.021126,5e-5 -1.7903908,-0.1967 -3.9316918,-0.43727 z"
       id="path849-5-6"
       inkscape:connector-curvature="0" />
    <path
       style="fill:#5fd35f;fill-opacity:1;stroke-width:0.01092823"
       d="m 4.3220637,283.25712 c -2.1144939,-0.41233 -3.84645428,-0.75204 -3.84880101,-0.75487 -0.003867,-0.005 0.0116742,-0.49357 0.0157457,-0.49601 0.00155,-9.4e-4 7.57955031,1.95942 7.70031561,1.992 0.045351,0.0122 0.047808,0.014 0.015573,0.0116 -0.02107,-9.4e-4 -1.7683367,-0.34035 -3.8828289,-0.75267 z"
       id="path849-3-6-7"
       inkscape:connector-curvature="0" />
    <path
       inkscape:connector-curvature="0"
       id="path821-3-3"
       style="fill:#5fd35f;stroke-width:0.01832583"
       d="m 0.1892339,283.37259 c 0.007838,-0.007 7.8932964,0.87921 7.9778045,0.89737 l 0.041418,0.009 v 4.78034 3.03629 c -0.00278,-9e-5 -0.00603,2.4e-4 -0.00945,9.2e-4 l -0.4852241,-0.0584 -0.7721101,-0.0823 -1.0668745,-0.1818 -0.8866292,-0.20159 -0.7128019,-0.29449 -0.4661251,-0.17539 c -0.1353293,-0.0577 -0.376695,-0.13512 -0.4893508,0.004 -0.1024389,0.0966 -0.1586506,0.34172 0.030874,0.52233 0.2180336,0.16858 0.4718211,0.28405 0.730138,0.39278 0.2797244,0.13414 0.6344917,0.24729 0.9650395,0.35372 0.3345246,0.11226 0.6843431,0.18381 1.0422125,0.23389 l 1.0947305,0.16619 1.0255562,0.10496 v 0.95938 H 4.7620894 1.3157207 L 0.74841319,288.60998 C 0.43639178,285.73382 0.18475513,283.37695 0.1892339,283.3725 Z m 8.0192227,9.50751 v -9.3e-4 c 0.00232,3e-4 0.00464,9.3e-4 0.00667,9.3e-4 9.74e-5,1.1e-4 9.74e-5,2.1e-4 2.44e-4,3.1e-4 z M 6.098688,285.48731 a 1.0813175,2.1303323 0 0 0 -1.0813173,2.13034 1.0813175,2.1303323 0 0 0 1.0813173,2.13033 1.0813175,2.1303323 0 0 0 1.081318,-2.13034 1.0813175,2.1303323 0 0 0 -1.081318,-2.13033 z m 2.1136696,6.70397 c 7.502e-4,1.8e-4 0.00139,2.8e-4 0.00112,9.3e-4 -1.957e-4,2.9e-4 -4.824e-4,9.2e-4 -7.002e-4,9.2e-4 -7.003e-4,-9.2e-4 -9.275e-4,-9.2e-4 -0.00168,-0.002 -2.438e-4,-3.1e-4 4.424e-4,-3.1e-4 0.00112,-1.2e-4 z" />
    <flowRoot
       xml:space="preserve"
       id="flowRoot198"
       style="font-style:normal;font-variant:normal;font-weight:normal;font-stretch:normal;font-size:26.66666603px;line-height:1.25;font-family:'Rubik Mono One';-inkscape-font-specification:'Rubik Mono One';text-align:center;letter-spacing:0px;word-spacing:0px;text-anchor:middle;fill:#000000;fill-opacity:1;stroke:none"><flowRegion
         id="flowRegion200"
         style="font-style:normal;font-variant:normal;font-weight:normal;font-stretch:normal;font-size:26.66666603px;font-family:'Rubik Mono One';-inkscape-font-specification:'Rubik Mono One';text-align:center;text-anchor:middle"><rect
           id="rect202"
           width="256.07367"
           height="41.921329"
           x="0"
           y="203.97714"
           style="font-style:normal;font-variant:normal;font-weight:normal;font-stretch:normal;font-size:26.66666603px;font-family:'Rubik Mono One';-inkscape-font-specification:'Rubik Mono One';text-align:center;text-anchor:middle" /></flowRegion><flowPara
         id="flowPara204" /></flowRoot>  </g>
</svg>
