<?xml version="1.0" encoding="UTF-8" standalone="no"?>
<!-- Created with Inkscape (http://www.inkscape.org/) -->

<svg
   xmlns:dc="http://purl.org/dc/elements/1.1/"
   xmlns:cc="http://creativecommons.org/ns#"
   xmlns:rdf="http://www.w3.org/1999/02/22-rdf-syntax-ns#"
   xmlns:svg="http://www.w3.org/2000/svg"
   xmlns="http://www.w3.org/2000/svg"
   xmlns:sodipodi="http://sodipodi.sourceforge.net/DTD/sodipodi-0.dtd"
   xmlns:inkscape="http://www.inkscape.org/namespaces/inkscape"
   width="128"
   height="128"
   viewBox="0 0 33.866666 33.866668"
   version="1.1"
   id="svg8"
   inkscape:version="0.92.4 (5da689c313, 2019-01-14)"
   sodipodi:docname="logo.svg"
   inkscape:export-filename="/home/gilmar/Desktop/logo-com-nome.png"
   inkscape:export-xdpi="130"
   inkscape:export-ydpi="130">
  <defs
     id="defs2" />
  <sodipodi:namedview
     id="base"
     pagecolor="#ffffff"
     bordercolor="#666666"
     borderopacity="1.0"
     inkscape:pageopacity="0.0"
     inkscape:pageshadow="2"
     inkscape:zoom="5.6"
     inkscape:cx="62.364035"
     inkscape:cy="43.022341"
     inkscape:document-units="mm"
     inkscape:current-layer="layer1"
     showgrid="false"
     showborder="true"
     inkscape:window-width="1366"
     inkscape:window-height="721"
     inkscape:window-x="0"
     inkscape:window-y="26"
     inkscape:window-maximized="1"
     showguides="true"
     inkscape:guide-bbox="true"
     units="px"
     inkscape:showpageshadow="false" />
  <metadata
     id="metadata5">
    <rdf:RDF>
      <cc:Work
         rdf:about="">
        <dc:format>image/svg+xml</dc:format>
        <dc:type
           rdf:resource="http://purl.org/dc/dcmitype/StillImage" />
        <dc:title></dc:title>
      </cc:Work>
    </rdf:RDF>
  </metadata>
  <g
     inkscape:label="Camada 1"
     inkscape:groupmode="layer"
     id="layer1"
     transform="translate(0,-263.13331)">
    <path
       id="path821-3"
       style="fill:#f2f2f2;stroke-width:0.03662844"
       d="m 33.413857,269.6308 c -0.01567,-0.0155 -15.776591,1.75731 -15.945498,1.79359 l -0.08279,0.0177 v 9.55458 6.06875 c 0.0056,-1.9e-4 0.012,4.9e-4 0.01887,0.002 l 0.969833,-0.11672 1.543243,-0.16471 2.132397,-0.36334 1.772134,-0.40295 1.424701,-0.58861 0.931659,-0.35053 c 0.270488,-0.11527 0.752912,-0.27006 0.978081,0.007 0.204748,0.19304 0.317102,0.683 -0.0617,1.04402 -0.435792,0.33691 -0.943046,0.56773 -1.459354,0.78502 -0.559091,0.26817 -1.268176,0.49429 -1.928854,0.70701 -0.668625,0.22438 -1.36782,0.36737 -2.083106,0.46748 l -2.188072,0.33214 -2.049815,0.20983 v 1.91754 h 6.888369 6.888368 l 1.133894,-10.45218 c 0.623649,-5.74873 1.126602,-10.45948 1.11765,-10.46836 z m -16.028284,19.00297 v -0.002 c -0.0047,5.9e-4 -0.0092,0.002 -0.01332,0.002 -1.95e-4,2.1e-4 -1.95e-4,4e-4 -4.87e-4,6e-4 z m 4.216862,-14.77622 a 2.1612647,4.2579648 0 0 1 2.161267,4.25798 2.1612647,4.2579648 0 0 1 -2.161267,4.25798 2.1612647,4.2579648 0 0 1 -2.161265,-4.25798 2.1612647,4.2579648 0 0 1 2.161265,-4.25798 z m -4.224657,13.39944 c -0.0015,3.9e-4 -0.0028,5.8e-4 -0.0024,0.002 3.89e-4,5.8e-4 9.64e-4,0.002 0.0014,0.002 0.0014,-0.002 0.0019,-0.002 0.0034,-0.004 4.87e-4,-5.9e-4 -8.82e-4,-5.9e-4 -0.0023,-2e-4 z"
       inkscape:connector-curvature="0" />
    <path
       style="fill:#f2f2f2;fill-opacity:1;stroke-width:0.02184262"
       d="m 25.32627,270.13975 c 4.279892,-0.48082 7.785828,-0.87858 7.790973,-0.88388 0.0084,-0.008 0.05763,-0.98515 0.04992,-0.99065 -0.003,-0.002 -15.420469,2.68256 -15.666385,2.72804 -0.09235,0.0171 -0.09754,0.0204 -0.03291,0.0205 0.04222,8e-5 3.57851,-0.39318 7.858405,-0.87402 z"
       id="path849-5"
       inkscape:connector-curvature="0" />
    <path
       style="fill:#f2f2f2;fill-opacity:1;stroke-width:0.02184262"
       d="m 25.148823,269.40062 c 4.226308,-0.82411 7.688033,-1.50309 7.692723,-1.50876 0.0077,-0.01 -0.02334,-0.98651 -0.03146,-0.99139 -0.0031,-0.002 -15.149501,3.91633 -15.390875,3.98147 -0.09064,0.0245 -0.09556,0.0282 -0.03111,0.0231 0.04211,-0.002 3.53443,-0.68024 7.760739,-1.50438 z"
       id="path849-3-6"
       inkscape:connector-curvature="0" />
    <path
       style="fill:#f2f2f2;fill-opacity:1;stroke:#ff5555;stroke-width:0.03662844;stroke-opacity:0"
       d="m 17.394597,292.44393 v -2.75353 h 3.925175 c 2.158847,0 3.90945,0.0137 3.890226,0.0304 -0.07597,0.0662 -7.777353,5.47655 -7.795742,5.47655 -0.0108,0 -0.01968,-1.23908 -0.01968,-2.75353 z"
       id="path1042"
       inkscape:connector-curvature="0" />
    <path
       style="fill:#f2f2f2;fill-opacity:1;stroke-width:0.02184262"
       d="m 8.5435803,270.13911 c -4.2798921,-0.48084 -7.78582918,-0.87858 -7.79097253,-0.8839 -0.008387,-0.008 -0.0576213,-0.98511 -0.0499067,-0.99065 0.002981,-0.002 15.42046593,2.68256 15.66638393,2.72807 0.09235,0.017 0.09755,0.0204 0.03291,0.0205 -0.04222,1e-4 -3.578512,-0.39317 -7.8584004,-0.874 z"
       id="path849-5-6"
       inkscape:connector-curvature="0" />
    <path
       style="fill:#f2f2f2;fill-opacity:1;stroke-width:0.02184262"
       d="m 8.7210286,269.4 c -4.2263082,-0.82414 -7.6880336,-1.50311 -7.6927242,-1.50879 -0.00773,-0.01 0.023334,-0.98651 0.031471,-0.99139 0.00309,-0.002 15.1494956,3.91635 15.3908726,3.98148 0.09064,0.0245 0.09555,0.0281 0.03112,0.0231 -0.04211,-0.002 -3.534433,-0.68027 -7.7607373,-1.50439 z"
       id="path849-3-6-7"
       inkscape:connector-curvature="0" />
    <path
       inkscape:connector-curvature="0"
       id="path821-3-3"
       style="fill:#f2f2f2;stroke-width:0.03662844"
       d="m 0.46060685,269.6308 c 0.0156631,-0.0155 15.77659015,1.75731 15.94549815,1.79359 l 0.08278,0.0177 v 9.55458 6.06875 c -0.0056,-1.9e-4 -0.012,4.9e-4 -0.01886,0.002 l -0.969834,-0.11674 -1.543242,-0.16469 -2.132397,-0.36337 -1.772135,-0.40294 -1.4246989,-0.58861 -0.9316595,-0.35053 c -0.2704877,-0.11527 -0.7529136,-0.27007 -0.9780823,0.007 -0.204747,0.19305 -0.3170998,0.68301 0.061706,1.04402 0.4357916,0.33691 0.9430453,0.56773 1.4593519,0.78503 0.559093,0.26815 1.2681785,0.49427 1.9288558,0.70699 0.668624,0.22439 1.367819,0.36739 2.083104,0.4675 l 2.188073,0.33214 2.049814,0.20982 v 1.91752 H 9.6005225 2.7121526 L 1.5782568,280.09901 C 0.95460927,274.35031 0.45165495,269.63955 0.46060685,269.63066 Z M 16.48889,288.63377 v -0.002 c 0.0047,5.9e-4 0.0092,0.002 0.01331,0.002 1.96e-4,2.1e-4 1.96e-4,4e-4 4.88e-4,6e-4 z m -4.216864,-14.7762 a 2.1612647,4.2579648 0 0 0 -2.161265,4.25797 2.1612647,4.2579648 0 0 0 2.161265,4.25797 2.1612647,4.2579648 0 0 0 2.161265,-4.25798 2.1612647,4.2579648 0 0 0 -2.161265,-4.25796 z m 4.224659,13.39942 c 0.0015,3.9e-4 0.0028,5.8e-4 0.0023,0.002 -3.91e-4,5.8e-4 -9.65e-4,0.002 -0.0014,0.002 -0.0014,-0.002 -0.0019,-0.002 -0.0034,-0.004 -4.87e-4,-5.9e-4 8.84e-4,-5.9e-4 0.0023,-2e-4 z" />
    <flowRoot
       xml:space="preserve"
       id="flowRoot198"
       style="font-style:normal;font-variant:normal;font-weight:normal;font-stretch:normal;font-size:26.66666603px;line-height:1.25;font-family:'Rubik Mono One';-inkscape-font-specification:'Rubik Mono One';text-align:center;letter-spacing:0px;word-spacing:0px;text-anchor:middle;fill:#000000;fill-opacity:1;stroke:none"><flowRegion
         id="flowRegion200"
         style="font-style:normal;font-variant:normal;font-weight:normal;font-stretch:normal;font-size:26.66666603px;font-family:'Rubik Mono One';-inkscape-font-specification:'Rubik Mono One';text-align:center;text-anchor:middle"><rect
           id="rect202"
           width="256.07367"
           height="41.921329"
           x="0"
           y="203.97714"
           style="font-style:normal;font-variant:normal;font-weight:normal;font-stretch:normal;font-size:26.66666603px;font-family:'Rubik Mono One';-inkscape-font-specification:'Rubik Mono One';text-align:center;text-anchor:middle" /></flowRegion><flowPara
         id="flowPara204" /></flowRoot>  </g>
</svg>
