<?xml version="1.0" encoding="UTF-8" standalone="no"?>
<!-- Created with Inkscape (http://www.inkscape.org/) -->

<svg
   xmlns:dc="http://purl.org/dc/elements/1.1/"
   xmlns:cc="http://creativecommons.org/ns#"
   xmlns:rdf="http://www.w3.org/1999/02/22-rdf-syntax-ns#"
   xmlns:svg="http://www.w3.org/2000/svg"
   xmlns="http://www.w3.org/2000/svg"
   xmlns:sodipodi="http://sodipodi.sourceforge.net/DTD/sodipodi-0.dtd"
   xmlns:inkscape="http://www.inkscape.org/namespaces/inkscape"
   width="32"
   height="32"
   viewBox="0 0 8.4666662 8.4666669"
   version="1.1"
   id="svg8"
   inkscape:version="0.92.4 (5da689c313, 2019-01-14)"
   sodipodi:docname="logo.svg"
   inkscape:export-filename="/home/gilmar/Desktop/logo-com-nome.png"
   inkscape:export-xdpi="130"
   inkscape:export-ydpi="130">
  <defs
     id="defs2" />
  <sodipodi:namedview
     id="base"
     pagecolor="#ffffff"
     bordercolor="#666666"
     borderopacity="1.0"
     inkscape:pageopacity="0.0"
     inkscape:pageshadow="2"
     inkscape:zoom="7.9195959"
     inkscape:cx="62.364035"
     inkscape:cy="23.642814"
     inkscape:document-units="mm"
     inkscape:current-layer="layer1"
     showgrid="false"
     showborder="true"
     inkscape:window-width="1366"
     inkscape:window-height="721"
     inkscape:window-x="0"
     inkscape:window-y="26"
     inkscape:window-maximized="1"
     showguides="true"
     inkscape:guide-bbox="true"
     units="px"
     inkscape:showpageshadow="false" />
  <metadata
     id="metadata5">
    <rdf:RDF>
      <cc:Work
         rdf:about="">
        <dc:format>image/svg+xml</dc:format>
        <dc:type
           rdf:resource="http://purl.org/dc/dcmitype/StillImage" />
        <dc:title></dc:title>
      </cc:Work>
    </rdf:RDF>
  </metadata>
  <g
     inkscape:label="Camada 1"
     inkscape:groupmode="layer"
     id="layer1"
     transform="translate(0,-288.53331)">
    <path
       id="path821-3"
       style="fill:#ffffff;stroke-width:0.00911425"
       d="m 8.3084031,290.24113 c -0.00384,-0.004 -3.9256889,0.43726 -3.9677178,0.44631 l -0.020602,0.005 v 2.37748 1.51008 c 0.00139,-5e-5 0.00302,1.3e-4 0.00469,3.9e-4 l 0.2413233,-0.0291 0.3840047,-0.041 0.5306043,-0.0905 0.4409603,-0.10027 0.3545083,-0.14646 0.2318243,-0.0873 c 0.067306,-0.0287 0.1873474,-0.0673 0.2433768,0.002 0.050946,0.0481 0.078904,0.16996 -0.01535,0.25979 -0.1084375,0.0839 -0.2346579,0.14128 -0.3631309,0.19532 -0.1391182,0.0667 -0.3155594,0.12302 -0.4799554,0.17594 -0.1663745,0.0559 -0.3403555,0.0914 -0.5183398,0.11633 l -0.5444578,0.0827 -0.5100553,0.0522 v 0.47715 h 1.7140347 1.7140325 l 0.2821476,-2.60082 c 0.1551855,-1.43053 0.2803346,-2.6027 0.2781061,-2.6049 z m -3.9883173,4.7285 v -3.9e-4 c -0.00115,1.5e-4 -0.00231,3.9e-4 -0.00332,3.9e-4 -4.85e-5,6e-5 -4.85e-5,1.1e-4 -1.209e-4,1.6e-4 z m 1.0492813,-3.67676 a 0.53778742,1.0595092 0 0 1 0.5377882,1.05952 0.53778742,1.0595092 0 0 1 -0.5377882,1.05951 0.53778742,1.0595092 0 0 1 -0.5377873,-1.05951 0.53778742,1.0595092 0 0 1 0.5377873,-1.05952 z m -1.0512212,3.33418 c -3.736e-4,10e-5 -6.905e-4,1.4e-4 -6.027e-4,3.7e-4 9.73e-5,1.7e-4 2.397e-4,4.1e-4 3.484e-4,4.1e-4 3.486e-4,-4.1e-4 4.629e-4,-4.1e-4 8.714e-4,-0.002 1.214e-4,-1.4e-4 -2.193e-4,-1.4e-4 -6.025e-4,-5e-5 z"
       inkscape:connector-curvature="0" />
    <path
       style="fill:#ffffff;fill-opacity:1;stroke-width:0.0054351"
       d="m 6.2959695,290.36776 c 1.0649651,-0.11964 1.9373464,-0.21861 1.9386276,-0.21992 0.00205,-0.002 0.014333,-0.24515 0.01242,-0.2465 -7.602e-4,-4e-4 -3.8370748,0.66749 -3.8982657,0.67881 -0.022981,0.005 -0.024272,0.006 -0.00819,0.006 0.010504,1e-5 0.890441,-0.0979 1.9554069,-0.2175 z"
       id="path849-5"
       inkscape:connector-curvature="0" />
    <path
       style="fill:#ffffff;fill-opacity:1;stroke-width:0.0054351"
       d="m 6.251815,290.18384 c 1.0516321,-0.20504 1.9130132,-0.374 1.91418,-0.37543 0.00189,-0.003 -0.00572,-0.24546 -0.00785,-0.24666 -7.602e-4,-4e-4 -3.7696489,0.97448 -3.8297105,0.99071 -0.022556,0.006 -0.023776,0.007 -0.00774,0.006 0.010478,-3.8e-4 0.8794722,-0.16925 1.9311045,-0.37433 z"
       id="path849-3-6"
       inkscape:connector-curvature="0" />
    <path
       style="fill:#ffffff;fill-opacity:1;stroke:#ff5555;stroke-width:0.00911425;stroke-opacity:0"
       d="m 4.322331,295.91772 v -0.68517 h 0.976701 c 0.5371867,0 0.9727886,0.004 0.9680054,0.008 -0.018906,0.0165 -1.9352386,1.36272 -1.939815,1.36272 -0.00269,0 -0.00489,-0.30831 -0.00489,-0.68517 z"
       id="path1042"
       inkscape:connector-curvature="0" />
    <path
       style="fill:#ffffff;fill-opacity:1;stroke-width:0.0054351"
       d="m 2.119933,290.36762 c -1.0649655,-0.11965 -1.9373478,-0.21864 -1.93862771,-0.21995 -0.002084,-0.002 -0.0143375,-0.24513 -0.0124173,-0.24651 7.4621e-4,-3.8e-4 3.83707401,0.66749 3.89826601,0.67884 0.022981,0.005 0.024272,0.006 0.00819,0.006 -0.010504,3e-5 -0.890441,-0.0979 -1.9554059,-0.21747 z"
       id="path849-5-6"
       inkscape:connector-curvature="0" />
    <path
       style="fill:#ffffff;fill-opacity:1;stroke-width:0.0054351"
       d="m 2.1640872,290.18369 c -1.051632,-0.20507 -1.91301316,-0.37402 -1.91418031,-0.37542 -0.001931,-0.003 0.005809,-0.24548 0.007833,-0.2467 7.6339e-4,-3.8e-4 3.76964861,0.97451 3.82971001,0.99071 0.022555,0.006 0.023771,0.007 0.00775,0.006 -0.010478,-3.7e-4 -0.8794728,-0.16926 -1.9311045,-0.37433 z"
       id="path849-3-6-7"
       inkscape:connector-curvature="0" />
    <path
       inkscape:connector-curvature="0"
       id="path821-3-3"
       style="fill:#ffffff;stroke-width:0.00911425"
       d="m 0.10864674,290.24113 c 0.003895,-0.004 3.92568856,0.43726 3.96771806,0.44631 l 0.020597,0.005 v 2.37748 1.51008 c -0.00139,-5e-5 -0.00302,1.3e-4 -0.00468,3.9e-4 l -0.2413238,-0.0291 -0.3840048,-0.041 -0.5306043,-0.0905 -0.4409602,-0.10026 -0.3545075,-0.14646 -0.2318252,-0.0873 c -0.067305,-0.0287 -0.1873472,-0.0673 -0.2433757,0.002 -0.050947,0.0481 -0.078904,0.16996 0.01535,0.25979 0.1084379,0.0838 0.2346572,0.14128 0.3631304,0.19532 0.1391191,0.0667 0.3155609,0.12301 0.4799571,0.17594 0.1663737,0.0559 0.3403541,0.0914 0.5183385,0.11632 l 0.544458,0.0827 0.5100555,0.0522 v 0.47715 H 2.3829294 0.6688969 l -0.28214729,-2.60091 c -0.15518217,-1.43045 -0.28033229,-2.60261 -0.27810484,-2.60483 z m 3.98831726,4.7285 v -3.9e-4 c 0.00115,1.5e-4 0.00231,3.9e-4 0.00332,3.9e-4 4.92e-5,6e-5 4.92e-5,1.1e-4 1.218e-4,1.6e-4 z m -1.0492824,-3.67676 a 0.53778742,1.0595092 0 0 0 -0.5377871,1.05952 0.53778742,1.0595092 0 0 0 0.5377871,1.05951 0.53778742,1.0595092 0 0 0 0.5377877,-1.05951 0.53778742,1.0595092 0 0 0 -0.5377877,-1.05952 z m 1.0512219,3.33418 c 3.733e-4,10e-5 6.904e-4,1.4e-4 6.024e-4,3.7e-4 -9.71e-5,1.7e-4 -2.401e-4,4.1e-4 -3.484e-4,4.1e-4 -3.484e-4,-4.1e-4 -4.628e-4,-4.1e-4 -8.713e-4,-0.002 -1.208e-4,-1.4e-4 2.204e-4,-1.4e-4 6.024e-4,-5e-5 z" />
    <flowRoot
       xml:space="preserve"
       id="flowRoot198"
       style="font-style:normal;font-variant:normal;font-weight:normal;font-stretch:normal;font-size:26.66666603px;line-height:1.25;font-family:'Rubik Mono One';-inkscape-font-specification:'Rubik Mono One';text-align:center;letter-spacing:0px;word-spacing:0px;text-anchor:middle;fill:#000000;fill-opacity:1;stroke:none"><flowRegion
         id="flowRegion200"
         style="font-style:normal;font-variant:normal;font-weight:normal;font-stretch:normal;font-size:26.66666603px;font-family:'Rubik Mono One';-inkscape-font-specification:'Rubik Mono One';text-align:center;text-anchor:middle"><rect
           id="rect202"
           width="256.07367"
           height="41.921329"
           x="0"
           y="203.97714"
           style="font-style:normal;font-variant:normal;font-weight:normal;font-stretch:normal;font-size:26.66666603px;font-family:'Rubik Mono One';-inkscape-font-specification:'Rubik Mono One';text-align:center;text-anchor:middle" /></flowRegion><flowPara
         id="flowPara204" /></flowRoot>  </g>
</svg>
