<?xml version="1.0" encoding="UTF-8" standalone="no"?>
<!-- Created with Inkscape (http://www.inkscape.org/) -->

<svg
   xmlns:dc="http://purl.org/dc/elements/1.1/"
   xmlns:cc="http://creativecommons.org/ns#"
   xmlns:rdf="http://www.w3.org/1999/02/22-rdf-syntax-ns#"
   xmlns:svg="http://www.w3.org/2000/svg"
   xmlns="http://www.w3.org/2000/svg"
   xmlns:sodipodi="http://sodipodi.sourceforge.net/DTD/sodipodi-0.dtd"
   xmlns:inkscape="http://www.inkscape.org/namespaces/inkscape"
   width="40"
   height="40"
   viewBox="0 0 10.583333 10.583334"
   version="1.1"
   id="svg8"
   inkscape:version="0.92.4 (5da689c313, 2019-01-14)"
   sodipodi:docname="logo.svg"
   inkscape:export-filename="/home/gilmar/Desktop/logo-com-nome.png"
   inkscape:export-xdpi="130"
   inkscape:export-ydpi="130">
  <defs
     id="defs2" />
  <sodipodi:namedview
     id="base"
     pagecolor="#ffffff"
     bordercolor="#666666"
     borderopacity="1.0"
     inkscape:pageopacity="0.0"
     inkscape:pageshadow="2"
     inkscape:zoom="7.9195959"
     inkscape:cx="62.364035"
     inkscape:cy="23.642814"
     inkscape:document-units="mm"
     inkscape:current-layer="layer1"
     showgrid="false"
     showborder="true"
     inkscape:window-width="1366"
     inkscape:window-height="721"
     inkscape:window-x="0"
     inkscape:window-y="26"
     inkscape:window-maximized="1"
     showguides="true"
     inkscape:guide-bbox="true"
     units="px"
     inkscape:showpageshadow="false" />
  <metadata
     id="metadata5">
    <rdf:RDF>
      <cc:Work
         rdf:about="">
        <dc:format>image/svg+xml</dc:format>
        <dc:type
           rdf:resource="http://purl.org/dc/dcmitype/StillImage" />
        <dc:title></dc:title>
      </cc:Work>
    </rdf:RDF>
  </metadata>
  <g
     inkscape:label="Camada 1"
     inkscape:groupmode="layer"
     id="layer1"
     transform="translate(0,-286.41664)">
    <path
       id="path821-3"
       style="fill:#ffffff;stroke-width:0.01148952"
       d="m 10.445952,288.36421 c -0.0048,-0.005 -4.9487646,0.55122 -5.0017466,0.56262 l -0.025971,0.006 v 2.99707 1.90363 c 0.00175,-6e-5 0.00381,1.6e-4 0.00592,4.9e-4 l 0.3042147,-0.0367 0.4840803,-0.0517 0.6688852,-0.11409 0.5558792,-0.1264 0.4468969,-0.18463 0.2922401,-0.11005 c 0.084846,-0.0361 0.2361721,-0.0848 0.3068034,0.002 0.064222,0.0606 0.099467,0.21425 -0.01935,0.32749 -0.1366974,0.10578 -0.2958122,0.1781 -0.4577666,0.24622 -0.1753738,0.0841 -0.3977974,0.15508 -0.6050368,0.22181 -0.2097334,0.0705 -0.4290557,0.1152 -0.6534245,0.14663 l -0.6863492,0.10431 -0.642981,0.0658 v 0.60151 h 2.16073 2.1607272 l 0.3556787,-3.27863 c 0.195628,-1.80333 0.353392,-3.28098 0.350584,-3.28376 z m -5.0277146,5.9608 v -5e-4 c -0.00145,1.9e-4 -0.00291,5e-4 -0.00419,5e-4 -6.12e-5,7e-5 -6.12e-5,1.3e-4 -1.524e-4,2e-4 z m 1.322735,-4.63496 a 0.67794043,1.3356284 0 0 1 0.6779415,1.33564 0.67794043,1.3356284 0 0 1 -0.6779415,1.33563 0.67794043,1.3356284 0 0 1 -0.6779403,-1.33563 0.67794043,1.3356284 0 0 1 0.6779403,-1.33564 z m -1.3251805,4.2031 c -4.709e-4,1.2e-4 -8.703e-4,1.7e-4 -7.596e-4,4.7e-4 1.226e-4,2.1e-4 3.021e-4,5.1e-4 4.391e-4,5.1e-4 4.395e-4,-5.1e-4 5.835e-4,-5.1e-4 0.0011,-0.002 1.53e-4,-1.7e-4 -2.765e-4,-1.7e-4 -7.596e-4,-7e-5 z"
       inkscape:connector-curvature="0" />
    <path
       style="fill:#ffffff;fill-opacity:1;stroke-width:0.00685155"
       d="m 7.909057,288.52385 c 1.3425061,-0.15083 2.442239,-0.27559 2.443855,-0.27724 0.0026,-0.002 0.01807,-0.30904 0.01566,-0.31074 -9.59e-4,-5e-4 -4.8370576,0.84145 -4.9141954,0.85571 -0.02897,0.006 -0.030598,0.007 -0.010326,0.007 0.013242,10e-6 1.1224992,-0.12342 2.4650064,-0.27418 z"
       id="path849-5"
       inkscape:connector-curvature="0" />
    <path
       style="fill:#ffffff;fill-opacity:1;stroke-width:0.00685155"
       d="m 7.8533954,288.29199 c 1.3256984,-0.25847 2.4115656,-0.47147 2.4130356,-0.47327 0.0024,-0.004 -0.0072,-0.30943 -0.0098,-0.31094 -9.59e-4,-5e-4 -4.7520595,1.22844 -4.8277738,1.24889 -0.028434,0.007 -0.029973,0.008 -0.00976,0.007 0.013209,-4.8e-4 1.1086719,-0.21335 2.4343705,-0.47188 z"
       id="path849-3-6"
       inkscape:connector-curvature="0" />
    <path
       style="fill:#ffffff;fill-opacity:1;stroke:#ff5555;stroke-width:0.01148952;stroke-opacity:0"
       d="m 5.4210678,295.52018 v -0.86373 h 1.2312394 c 0.6771832,0 1.2263075,0.005 1.2202778,0.0105 -0.023833,0.0208 -2.439582,1.71786 -2.4453511,1.71786 -0.00339,0 -0.00617,-0.38866 -0.00617,-0.86373 z"
       id="path1042"
       inkscape:connector-curvature="0" />
    <path
       style="fill:#ffffff;fill-opacity:1;stroke-width:0.00685155"
       d="m 2.6447018,288.52367 c -1.3425066,-0.15084 -2.44224075,-0.27562 -2.44385421,-0.27728 -0.002622,-0.002 -0.0180734,-0.30901 -0.015653,-0.31075 9.4066e-4,-4.7e-4 4.83705541,0.84145 4.91419461,0.85575 0.02897,0.006 0.030598,0.007 0.010326,0.007 -0.013242,3e-5 -1.1224993,-0.12342 -2.4650052,-0.27415 z"
       id="path849-5-6"
       inkscape:connector-curvature="0" />
    <path
       style="fill:#ffffff;fill-opacity:1;stroke-width:0.00685155"
       d="m 2.7003632,288.2918 c -1.3256984,-0.25851 -2.41156445,-0.4715 -2.41303572,-0.47326 -0.002433,-0.004 0.007325,-0.30945 0.00987,-0.31099 9.6236e-4,-4.7e-4 4.75205832,1.22848 4.82777242,1.2489 0.028433,0.007 0.029965,0.008 0.00977,0.007 -0.013209,-4.7e-4 -1.1086726,-0.21336 -2.4343705,-0.47188 z"
       id="path849-3-6-7"
       inkscape:connector-curvature="0" />
    <path
       inkscape:connector-curvature="0"
       id="path821-3-3"
       style="fill:#ffffff;stroke-width:0.01148952"
       d="m 0.1092534,288.36421 c 0.004903,-0.005 4.948764,0.55122 5.0017468,0.56262 l 0.025965,0.006 v 2.99707 1.90363 c -0.00175,-6e-5 -0.00381,1.6e-4 -0.0059,4.9e-4 l -0.3042153,-0.0367 -0.4840804,-0.0517 -0.6688854,-0.11409 -0.555879,-0.12638 -0.4468959,-0.18464 -0.2922412,-0.11005 c -0.084845,-0.0361 -0.2361718,-0.0848 -0.306802,0.002 -0.064225,0.0606 -0.099467,0.21426 0.01935,0.3275 0.136698,0.10564 0.2958114,0.1781 0.457766,0.24623 0.175375,0.0841 0.3977993,0.15505 0.6050389,0.22179 0.2097324,0.0705 0.4290539,0.11522 0.653423,0.14662 l 0.6863494,0.10431 0.6429812,0.0658 v 0.60151 H 2.9762379 0.81551066 L 0.45983282,291.64784 C 0.26420852,289.8446 0.106443,288.36697 0.10925102,288.36417 Z m 5.0277144,5.9608 v -5e-4 c 0.00145,1.9e-4 0.00291,5e-4 0.00419,5e-4 6.2e-5,7e-5 6.2e-5,1.3e-4 1.535e-4,2e-4 z m -1.3227363,-4.63496 a 0.67794043,1.3356284 0 0 0 -0.6779401,1.33564 0.67794043,1.3356284 0 0 0 0.6779401,1.33563 0.67794043,1.3356284 0 0 0 0.6779407,-1.33563 0.67794043,1.3356284 0 0 0 -0.6779407,-1.33564 z m 1.3251813,4.2031 c 4.705e-4,1.2e-4 8.703e-4,1.7e-4 7.593e-4,4.7e-4 -1.224e-4,2.1e-4 -3.026e-4,5.1e-4 -4.392e-4,5.1e-4 -4.392e-4,-5.1e-4 -5.834e-4,-5.1e-4 -0.0011,-0.002 -1.523e-4,-1.7e-4 2.778e-4,-1.7e-4 7.594e-4,-7e-5 z" />
    <flowRoot
       xml:space="preserve"
       id="flowRoot198"
       style="font-style:normal;font-variant:normal;font-weight:normal;font-stretch:normal;font-size:26.66666603px;line-height:1.25;font-family:'Rubik Mono One';-inkscape-font-specification:'Rubik Mono One';text-align:center;letter-spacing:0px;word-spacing:0px;text-anchor:middle;fill:#000000;fill-opacity:1;stroke:none"><flowRegion
         id="flowRegion200"
         style="font-style:normal;font-variant:normal;font-weight:normal;font-stretch:normal;font-size:26.66666603px;font-family:'Rubik Mono One';-inkscape-font-specification:'Rubik Mono One';text-align:center;text-anchor:middle"><rect
           id="rect202"
           width="256.07367"
           height="41.921329"
           x="0"
           y="203.97714"
           style="font-style:normal;font-variant:normal;font-weight:normal;font-stretch:normal;font-size:26.66666603px;font-family:'Rubik Mono One';-inkscape-font-specification:'Rubik Mono One';text-align:center;text-anchor:middle" /></flowRegion><flowPara
         id="flowPara204" /></flowRoot>  </g>
</svg>
