<?xml version="1.0" encoding="UTF-8" standalone="no"?>
<!-- Created with Inkscape (http://www.inkscape.org/) -->

<svg
   xmlns:dc="http://purl.org/dc/elements/1.1/"
   xmlns:cc="http://creativecommons.org/ns#"
   xmlns:rdf="http://www.w3.org/1999/02/22-rdf-syntax-ns#"
   xmlns:svg="http://www.w3.org/2000/svg"
   xmlns="http://www.w3.org/2000/svg"
   xmlns:sodipodi="http://sodipodi.sourceforge.net/DTD/sodipodi-0.dtd"
   xmlns:inkscape="http://www.inkscape.org/namespaces/inkscape"
   width="50"
   height="50"
   viewBox="0 0 13.229166 13.229167"
   version="1.1"
   id="svg8"
   inkscape:version="0.92.4 (5da689c313, 2019-01-14)"
   sodipodi:docname="logo.svg"
   inkscape:export-filename="/home/gilmar/Desktop/logo-com-nome.png"
   inkscape:export-xdpi="130"
   inkscape:export-ydpi="130">
  <defs
     id="defs2" />
  <sodipodi:namedview
     id="base"
     pagecolor="#ffffff"
     bordercolor="#666666"
     borderopacity="1.0"
     inkscape:pageopacity="0.0"
     inkscape:pageshadow="2"
     inkscape:zoom="7.9195959"
     inkscape:cx="62.364035"
     inkscape:cy="23.642814"
     inkscape:document-units="mm"
     inkscape:current-layer="layer1"
     showgrid="false"
     showborder="true"
     inkscape:window-width="1366"
     inkscape:window-height="721"
     inkscape:window-x="0"
     inkscape:window-y="26"
     inkscape:window-maximized="1"
     showguides="true"
     inkscape:guide-bbox="true"
     units="px"
     inkscape:showpageshadow="false" />
  <metadata
     id="metadata5">
    <rdf:RDF>
      <cc:Work
         rdf:about="">
        <dc:format>image/svg+xml</dc:format>
        <dc:type
           rdf:resource="http://purl.org/dc/dcmitype/StillImage" />
        <dc:title></dc:title>
      </cc:Work>
    </rdf:RDF>
  </metadata>
  <g
     inkscape:label="Camada 1"
     inkscape:groupmode="layer"
     id="layer1"
     transform="translate(0,-283.77081)">
    <path
       id="path821-3"
       style="fill:#f2f2f2;stroke-width:0.01438679"
       d="m 13.085585,286.12407 c -0.0061,-0.007 -6.1966786,0.69023 -6.263021,0.70448 l -0.032521,0.008 v 3.75283 2.38366 c 0.00219,-8e-5 0.00474,1.9e-4 0.00741,6e-4 l 0.3809277,-0.0459 0.6061494,-0.0647 0.8375558,-0.14272 0.6960535,-0.15826 0.5595893,-0.2312 0.3659333,-0.13768 c 0.106242,-0.0453 0.295727,-0.10608 0.384169,0.003 0.08042,0.0758 0.124549,0.26826 -0.02423,0.41006 -0.171168,0.13234 -0.370406,0.223 -0.5732,0.30833 -0.2195974,0.10533 -0.4981089,0.19415 -0.7576069,0.2777 -0.2626215,0.0882 -0.5372493,0.1443 -0.8181967,0.18362 l -0.8594234,0.13045 -0.8051197,0.0824 v 0.75318 H 9.4956486 12.20124 l 0.445368,-4.10538 c 0.244955,-2.25796 0.442502,-4.10824 0.438984,-4.11172 z m -6.2955373,7.46392 v -6.1e-4 c -0.00181,2.3e-4 -0.00365,6.1e-4 -0.00526,6.1e-4 -7.68e-5,9e-5 -7.68e-5,1.6e-4 -1.908e-4,2.4e-4 z m 1.6562847,-5.80376 a 0.84889447,1.6724294 0 0 1 0.848896,1.67245 0.84889447,1.6724294 0 0 1 -0.848896,1.67244 0.84889447,1.6724294 0 0 1 -0.8488941,-1.67244 0.84889447,1.6724294 0 0 1 0.8488941,-1.67245 z m -1.6593468,5.26299 c -5.896e-4,1.7e-4 -0.00109,2.3e-4 -9.512e-4,6.2e-4 1.535e-4,2.3e-4 3.784e-4,6.1e-4 5.501e-4,6.1e-4 5.501e-4,-6.1e-4 7.305e-4,-6.1e-4 0.00138,-0.003 1.914e-4,-2.4e-4 -3.462e-4,-2.4e-4 -9.51e-4,-8e-5 z"
       inkscape:connector-curvature="0" />
    <path
       style="fill:#f2f2f2;fill-opacity:1;stroke-width:0.00857928"
       d="m 9.9089691,286.32397 c 1.6810419,-0.18885 3.0580909,-0.34509 3.0601129,-0.34716 0.0033,-0.003 0.02263,-0.38695 0.01961,-0.3891 -0.0012,-6.3e-4 -6.056801,1.05363 -6.1533908,1.07151 -0.036275,0.008 -0.038314,0.009 -0.012921,0.009 0.016581,2e-5 1.4055562,-0.15444 3.0865992,-0.34331 z"
       id="path849-5"
       inkscape:connector-curvature="0" />
    <path
       style="fill:#f2f2f2;fill-opacity:1;stroke-width:0.00857928"
       d="m 9.8392717,286.03366 c 1.6599953,-0.32368 3.0196803,-0.59038 3.0215223,-0.59261 0.003,-0.004 -0.0091,-0.38747 -0.01235,-0.38938 -0.0012,-6.2e-4 -5.9503709,1.53823 -6.0451775,1.56382 -0.035604,0.01 -0.037531,0.0111 -0.01222,0.01 0.016538,-6e-4 1.388242,-0.26716 3.0482377,-0.59087 z"
       id="path849-3-6"
       inkscape:connector-curvature="0" />
    <path
       style="fill:#f2f2f2;fill-opacity:1;stroke:#ff5555;stroke-width:0.01438679;stroke-opacity:0"
       d="m 6.793592,295.08453 v -1.08152 h 1.5417169 c 0.8479463,0 1.5355415,0.007 1.5279912,0.0119 -0.029842,0.026 -3.0547634,2.15105 -3.0619871,2.15105 -0.00423,0 -0.00772,-0.48668 -0.00772,-1.08153 z"
       id="path1042"
       inkscape:connector-curvature="0" />
    <path
       style="fill:#f2f2f2;fill-opacity:1;stroke-width:0.00857928"
       d="m 3.3171188,286.32373 c -1.6810421,-0.18887 -3.05809277,-0.3451 -3.06011308,-0.34719 -0.00329,-0.003 -0.0226323,-0.38693 -0.0196012,-0.3891 0.001178,-6.2e-4 6.05679998,1.05364 6.15339128,1.07153 0.036275,0.008 0.038314,0.009 0.012921,0.009 -0.016581,3e-5 -1.4055562,-0.15443 -3.0865973,-0.34329 z"
       id="path849-5-6"
       inkscape:connector-curvature="0" />
    <path
       style="fill:#f2f2f2;fill-opacity:1;stroke-width:0.00857928"
       d="m 3.3868162,286.03341 c -1.6599955,-0.3237 -3.01968089,-0.59039 -3.02152327,-0.59261 -0.003045,-0.004 0.009165,-0.38748 0.0123608,-0.38939 0.001205,-6.3e-4 5.95036957,1.53824 6.04517637,1.56382 0.035604,0.01 0.037524,0.0111 0.012228,0.01 -0.016538,-6e-4 -1.3882431,-0.26719 -3.0482379,-0.59088 z"
       id="path849-3-6-7"
       inkscape:connector-curvature="0" />
    <path
       inkscape:connector-curvature="0"
       id="path821-3-3"
       style="fill:#f2f2f2;stroke-width:0.01438679"
       d="m 0.14231459,286.12407 c 0.006155,-0.007 6.19667781,0.69023 6.26302091,0.70448 l 0.032513,0.008 v 3.75283 2.38366 c -0.00219,-8e-5 -0.00474,1.9e-4 -0.0074,6e-4 l -0.3809283,-0.0459 -0.6061495,-0.0647 -0.8375557,-0.14273 -0.6960534,-0.15825 -0.5595881,-0.2312 -0.3659347,-0.13768 c -0.1062409,-0.0453 -0.2957266,-0.10609 -0.3841672,0.003 -0.080421,0.0758 -0.1245494,0.26826 0.02423,0.41006 0.1711684,0.13233 0.370405,0.223 0.5731994,0.30833 0.2195986,0.10533 0.4981109,0.19414 0.7576095,0.27769 0.26262,0.0882 0.5372468,0.14432 0.8181945,0.18363 l 0.8594238,0.13045 0.8051196,0.0824 v 0.75317 H 3.7322573 1.0266663 l -0.4453679,-4.10563 c -0.24495414,-2.25797 -0.44250297,-4.10822 -0.43898689,-4.11173 z m 6.29553651,7.46392 v -6.1e-4 c 0.00181,2.3e-4 0.00365,6.1e-4 0.00526,6.1e-4 7.75e-5,9e-5 7.75e-5,1.6e-4 1.922e-4,2.4e-4 z M 4.781565,287.78424 a 0.84889447,1.6724294 0 0 0 -0.8488941,1.67244 0.84889447,1.6724294 0 0 0 0.8488941,1.67244 0.84889447,1.6724294 0 0 0 0.8488947,-1.67244 0.84889447,1.6724294 0 0 0 -0.8488947,-1.67244 z m 1.6593477,5.26298 c 5.893e-4,1.7e-4 0.00109,2.3e-4 9.51e-4,6.2e-4 -1.534e-4,2.3e-4 -3.791e-4,6.1e-4 -5.5e-4,6.1e-4 -5.5e-4,-6.1e-4 -7.305e-4,-6.1e-4 -0.00138,-0.003 -1.906e-4,-2.4e-4 3.478e-4,-2.4e-4 9.511e-4,-8e-5 z" />
    <flowRoot
       xml:space="preserve"
       id="flowRoot198"
       style="font-style:normal;font-variant:normal;font-weight:normal;font-stretch:normal;font-size:26.66666603px;line-height:1.25;font-family:'Rubik Mono One';-inkscape-font-specification:'Rubik Mono One';text-align:center;letter-spacing:0px;word-spacing:0px;text-anchor:middle;fill:#000000;fill-opacity:1;stroke:none"><flowRegion
         id="flowRegion200"
         style="font-style:normal;font-variant:normal;font-weight:normal;font-stretch:normal;font-size:26.66666603px;font-family:'Rubik Mono One';-inkscape-font-specification:'Rubik Mono One';text-align:center;text-anchor:middle"><rect
           id="rect202"
           width="256.07367"
           height="41.921329"
           x="0"
           y="203.97714"
           style="font-style:normal;font-variant:normal;font-weight:normal;font-stretch:normal;font-size:26.66666603px;font-family:'Rubik Mono One';-inkscape-font-specification:'Rubik Mono One';text-align:center;text-anchor:middle" /></flowRegion><flowPara
         id="flowPara204" /></flowRoot>  </g>
</svg>
